{"accessors":[{"name":"Default_positions","componentType":5126,"count":755,"min":[-0.800000011920929,-0.5285999774932861,-0.29876598715782166],"max":[0.800000011920929,0.5285999774932861,0.29876598715782166],"type":"VEC3","bufferView":0,"byteOffset":0},{"name":"Default_normals","componentType":5126,"count":755,"min":[-1,-1,-1],"max":[1,1,1],"type":"VEC3","bufferView":0,"byteOffset":9060},{"name":"Default_0_indices","componentType":5123,"count":57,"min":[0],"max":[22],"type":"SCALAR","bufferView":1,"byteOffset":0},{"name":"Default_1_indices","componentType":5123,"count":2184,"min":[23],"max":[754],"type":"SCALAR","bufferView":1,"byteOffset":116}],"asset":{"generator":"obj2gltf","version":"2.0"},"buffers":[{"name":"LCD TV","byteLength":253920,"uri":"data:application/octet-stream;base64,"}],"bufferViews":[{"name":"bufferView_0","buffer":0,"byteLength":18120,"byteOffset":0,"byteStride":12,"target":34962},{"name":"bufferView_1","buffer":0,"byteLength":4484,"byteOffset":18120,"target":34963},{"buffer":0,"byteOffset":22604,"byteLength":231313}],"images":[{"name":"Texture","mimeType":"image/jpeg","bufferView":2}],"materials":[{"name":"Default","pbrMetallicRoughness":{"baseColorTexture":{"index":0},"baseColorFactor":[1,1,1,1],"metallicFactor":0,"roughnessFactor":0.744},"emissiveFactor":[0,0,0],"alphaMode":"OPAQUE","doubleSided":false},{"name":"Body","pbrMetallicRoughness":{"baseColorTexture":{"index":0},"baseColorFactor":[1,1,1,1],"metallicFactor":0,"roughnessFactor":0.744},"emissiveFactor":[0,0,0],"alphaMode":"OPAQUE","doubleSided":false}],"meshes":[{"name":"Default","primitives":[{"attributes":{"POSITION":0,"NORMAL":1},"indices":2,"material":0,"mode":4},{"attributes":{"POSITION":0,"NORMAL":1},"indices":3,"material":1,"mode":4}]}],"nodes":[{"name":"Mesh","mesh":0}],"samplers":[{"magFilter":9729,"minFilter":9986,"wrapS":10497,"wrapT":10497}],"scene":0,"scenes":[{"nodes":[0]}],"textures":[{"name":"Texture","sampler":0,"source":0}]}
