{"accessors":[{"name":"Node-Mesh_positions","componentType":5126,"count":37450,"min":[-3.1600899696350098,-1.3957699537277222,2.611419916152954],"max":[1.4580700397491455,0.9378569722175598,5.077889919281006],"type":"VEC3","bufferView":0,"byteOffset":0},{"name":"Node-Mesh_normals","componentType":5126,"count":37450,"min":[-1,-1,-1],"max":[1,0.9987879991531372,0.9797120094299316],"type":"VEC3","bufferView":0,"byteOffset":449400},{"name":"Node-Mesh_0_indices","componentType":5123,"count":223164,"min":[0],"max":[37449],"type":"SCALAR","bufferView":1,"byteOffset":0}],"asset":{"generator":"obj2gltf","version":"2.0"},"buffers":[{"name":"input","byteLength":1345128,"uri":"data:application/octet-stream;base64,"}],"bufferViews":[{"name":"bufferView_0","buffer":0,"byteLength":898800,"byteOffset":0,"byteStride":12,"target":34962},{"name":"bufferView_1","buffer":0,"byteLength":446328,"byteOffset":898800,"target":34963}],"materials":[{"name":"default","pbrMetallicRoughness":{"baseColorFactor":[0.5,0.5,0.5,1],"metallicFactor":0,"roughnessFactor":1},"emissiveFactor":[0,0,0],"alphaMode":"OPAQUE","doubleSided":false}],"meshes":[{"name":"Node-Mesh","primitives":[{"attributes":{"POSITION":0,"NORMAL":1},"indices":2,"material":0,"mode":4}]}],"nodes":[{"name":"Node","mesh":0}],"scene":0,"scenes":[{"nodes":[0]}]}
